HIERARCHY
ROOT Root
{
  OFFSET 0.0 0.0 0.0
  CHANNELS 6 Xposition Yposition Zposition Zrotation Yrotation Xrotation
  JOINT Hips
  {
    OFFSET 0.0 100.0 0.0
    CHANNELS 6 Xposition Yposition Zposition Zrotation Yrotation Xrotation
    JOINT Spine1
    {
      OFFSET -0.013727 5.003763 -0.053727
      CHANNELS 3 Zrotation Yrotation Xrotation
      JOINT Spine2
      {
        OFFSET -0.0 7.125301 -0.029825
        CHANNELS 3 Zrotation Yrotation Xrotation
        JOINT Chest
        {
          OFFSET -1e-06 7.550063 -0.815971
          CHANNELS 3 Zrotation Yrotation Xrotation
          JOINT Neck1
          {
            OFFSET -0.181677 26.311295 -0.553348
            CHANNELS 3 Zrotation Yrotation Xrotation
            JOINT Neck2
            {
              OFFSET -3e-06 7.709397 2.302585
              CHANNELS 3 Zrotation Yrotation Xrotation
              JOINT Head
              {
                OFFSET -5e-06 6.128916 1.953709
                CHANNELS 3 Zrotation Yrotation Xrotation
                JOINT HeadEnd
                {
                  OFFSET 0.003598 16.065403 -1.835379
                  CHANNELS 3 Zrotation Yrotation Xrotation
                }
                JOINT Jaw
                {
                  OFFSET 0.002637 0.475592 3.094941
                  CHANNELS 3 Zrotation Yrotation Xrotation
                }
                JOINT LeftEye
                {
                  OFFSET 3.206381 5.380205 7.586883
                  CHANNELS 3 Zrotation Yrotation Xrotation
                }
                JOINT RightEye
                {
                  OFFSET -3.22244 5.361869 7.558234
                  CHANNELS 3 Zrotation Yrotation Xrotation
                }
              }
            }
          }
          JOINT LeftShoulder
          {
            OFFSET 1.621652 23.237164 5.113413
            CHANNELS 3 Zrotation Yrotation Xrotation
            JOINT LeftArm
            {
              OFFSET 14.919846 2e-06 -5.502326
              CHANNELS 3 Zrotation Yrotation Xrotation
              JOINT LeftForeArm
              {
                OFFSET 28.739307 0.0 -0.002588
                CHANNELS 3 Zrotation Yrotation Xrotation
                JOINT LeftHand
                {
                  OFFSET 27.093981 -1e-06 0.002609
                  CHANNELS 3 Zrotation Yrotation Xrotation
                  JOINT LeftHandThumb1
                  {
                    OFFSET 2.276482 -1.392045 3.191413
                    CHANNELS 3 Zrotation Yrotation Xrotation
                    JOINT LeftHandThumb2
                    {
                      OFFSET 4.012836 -1.828127 1.641654
                      CHANNELS 3 Zrotation Yrotation Xrotation
                      JOINT LeftHandThumb3
                      {
                        OFFSET 2.798515 0.0 -3e-06
                        CHANNELS 3 Zrotation Yrotation Xrotation
                        JOINT LeftHandThumbEnd
                        {
                          OFFSET 3.180793 -4e-06 4e-06
                          CHANNELS 3 Zrotation Yrotation Xrotation
                        }
                      }
                    }
                  }
                  JOINT LeftHandIndex1
                  {
                    OFFSET 3.247555 -0.531998 2.296169
                    CHANNELS 3 Zrotation Yrotation Xrotation
                    JOINT LeftHandIndex2
                    {
                      OFFSET 6.364578 0.01206 0.1786
                      CHANNELS 3 Zrotation Yrotation Xrotation
                      JOINT LeftHandIndex3
                      {
                        OFFSET 3.662364 0.0 0.0
                        CHANNELS 3 Zrotation Yrotation Xrotation
                        JOINT LeftHandIndex4
                        {
                          OFFSET 2.329242 4e-06 4e-06
                          CHANNELS 3 Zrotation Yrotation Xrotation
                          JOINT LeftHandIndexEnd
                          {
                            OFFSET 2.759615 -0.180537 -0.113024
                            CHANNELS 3 Zrotation Yrotation Xrotation
                          }
                        }
                      }
                    }
                  }
                  JOINT LeftHandMiddle1
                  {
                    OFFSET 3.163495 0.240981 1.000332
                    CHANNELS 3 Zrotation Yrotation Xrotation
                    JOINT LeftHandMiddle2
                    {
                      OFFSET 6.19078 -0.259278 -1.002548
                      CHANNELS 3 Zrotation Yrotation Xrotation
                      JOINT LeftHandMiddle3
                      {
                        OFFSET 4.35652 -4e-06 -1e-06
                        CHANNELS 3 Zrotation Yrotation Xrotation
                        JOINT LeftHandMiddle4
                        {
                          OFFSET 2.996877 -8e-06 0.0
                          CHANNELS 3 Zrotation Yrotation Xrotation
                          JOINT LeftHandMiddleEnd
                          {
                            OFFSET 2.304287 -0.294569 -0.031741
                            CHANNELS 3 Zrotation Yrotation Xrotation
                          }
                        }
                      }
                    }
                  }
                  JOINT LeftHandRing1
                  {
                    OFFSET 2.882643 -0.053652 -0.322543
                    CHANNELS 3 Zrotation Yrotation Xrotation
                    JOINT LeftHandRing2
                    {
                      OFFSET 5.854541 -0.486202 -1.373841
                      CHANNELS 3 Zrotation Yrotation Xrotation
                      JOINT LeftHandRing3
                      {
                        OFFSET 4.350578 0.0 3e-06
                        CHANNELS 3 Zrotation Yrotation Xrotation
                        JOINT LeftHandRing4
                        {
                          OFFSET 2.651321 7e-06 2e-06
                          CHANNELS 3 Zrotation Yrotation Xrotation
                          JOINT LeftHandRingEnd
                          {
                            OFFSET 1.936105 0.077687 -7.1e-05
                            CHANNELS 3 Zrotation Yrotation Xrotation
                          }
                        }
                      }
                    }
                  }
                  JOINT LeftHandPinky1
                  {
                    OFFSET 2.8655 -0.310005 -1.600378
                    CHANNELS 3 Zrotation Yrotation Xrotation
                    JOINT LeftHandPinky2
                    {
                      OFFSET 5.087849 -1.331141 -1.77123
                      CHANNELS 3 Zrotation Yrotation Xrotation
                      JOINT LeftHandPinky3
                      {
                        OFFSET 3.070974 4e-06 0.0
                        CHANNELS 3 Zrotation Yrotation Xrotation
                        JOINT LeftHandPinky4
                        {
                          OFFSET 1.549672 0.0 1e-06
                          CHANNELS 3 Zrotation Yrotation Xrotation
                          JOINT LeftHandPinkyEnd
                          {
                            OFFSET 1.944893 -0.157802 0.057219
                            CHANNELS 3 Zrotation Yrotation Xrotation
                          }
                        }
                      }
                    }
                  }
                }
              }
            }
          }
          JOINT RightShoulder
          {
            OFFSET -1.380118 23.180309 5.214158
            CHANNELS 3 Zrotation Yrotation Xrotation
            JOINT RightArm
            {
              OFFSET -15.037196 1.2e-05 -5.545604
              CHANNELS 3 Zrotation Yrotation Xrotation
              JOINT RightForeArm
              {
                OFFSET -28.736639 2e-06 -0.002597
                CHANNELS 3 Zrotation Yrotation Xrotation
                JOINT RightHand
                {
                  OFFSET -27.133619 -0.0 0.002613
                  CHANNELS 3 Zrotation Yrotation Xrotation
                  JOINT RightHandThumb1
                  {
                    OFFSET -2.274032 -1.383988 3.163127
                    CHANNELS 3 Zrotation Yrotation Xrotation
                    JOINT RightHandThumb2
                    {
                      OFFSET -4.011429 -1.827466 1.640914
                      CHANNELS 3 Zrotation Yrotation Xrotation
                      JOINT RightHandThumb3
                      {
                        OFFSET -2.794935 -4e-06 -3e-06
                        CHANNELS 3 Zrotation Yrotation Xrotation
                        JOINT RightHandThumbEnd
                        {
                          OFFSET -3.183852 4e-06 1e-06
                          CHANNELS 3 Zrotation Yrotation Xrotation
                        }
                      }
                    }
                  }
                  JOINT RightHandIndex1
                  {
                    OFFSET -3.253266 -0.520057 2.282866
                    CHANNELS 3 Zrotation Yrotation Xrotation
                    JOINT RightHandIndex2
                    {
                      OFFSET -6.341917 0.012471 0.178266
                      CHANNELS 3 Zrotation Yrotation Xrotation
                      JOINT RightHandIndex3
                      {
                        OFFSET -3.654871 -8e-06 -0.0
                        CHANNELS 3 Zrotation Yrotation Xrotation
                        JOINT RightHandIndex4
                        {
                          OFFSET -2.327586 0.0 1e-06
                          CHANNELS 3 Zrotation Yrotation Xrotation
                          JOINT RightHandIndexEnd
                          {
                            OFFSET -2.76179 -0.180656 -0.113078
                            CHANNELS 3 Zrotation Yrotation Xrotation
                          }
                        }
                      }
                    }
                  }
                  JOINT RightHandMiddle1
                  {
                    OFFSET -3.168106 0.246593 1.00103
                    CHANNELS 3 Zrotation Yrotation Xrotation
                    JOINT RightHandMiddle2
                    {
                      OFFSET -6.180828 -0.258836 -1.000895
                      CHANNELS 3 Zrotation Yrotation Xrotation
                      JOINT RightHandMiddle3
                      {
                        OFFSET -4.348901 0.0 -0.0
                        CHANNELS 3 Zrotation Yrotation Xrotation
                        JOINT RightHandMiddle4
                        {
                          OFFSET -3.00024 -4e-06 -2e-06
                          CHANNELS 3 Zrotation Yrotation Xrotation
                          JOINT RightHandMiddleEnd
                          {
                            OFFSET -2.30252 -0.29437 -0.031706
                            CHANNELS 3 Zrotation Yrotation Xrotation
                          }
                        }
                      }
                    }
                  }
                  JOINT RightHandRing1
                  {
                    OFFSET -2.88569 -0.067952 -0.308858
                    CHANNELS 3 Zrotation Yrotation Xrotation
                    JOINT RightHandRing2
                    {
                      OFFSET -5.854198 -0.48613 -1.373731
                      CHANNELS 3 Zrotation Yrotation Xrotation
                      JOINT RightHandRing3
                      {
                        OFFSET -4.33881 -4e-06 -0.0
                        CHANNELS 3 Zrotation Yrotation Xrotation
                        JOINT RightHandRing4
                        {
                          OFFSET -2.654903 -4e-06 4e-06
                          CHANNELS 3 Zrotation Yrotation Xrotation
                          JOINT RightHandRingEnd
                          {
                            OFFSET -1.933568 0.077527 -5.2e-05
                            CHANNELS 3 Zrotation Yrotation Xrotation
                          }
                        }
                      }
                    }
                  }
                  JOINT RightHandPinky1
                  {
                    OFFSET -2.866425 -0.342796 -1.584145
                    CHANNELS 3 Zrotation Yrotation Xrotation
                    JOINT RightHandPinky2
                    {
                      OFFSET -5.091371 -1.332055 -1.772385
                      CHANNELS 3 Zrotation Yrotation Xrotation
                      JOINT RightHandPinky3
                      {
                        OFFSET -3.062664 -4e-06 1e-06
                        CHANNELS 3 Zrotation Yrotation Xrotation
                        JOINT RightHandPinky4
                        {
                          OFFSET -1.546529 4e-06 -2e-06
                          CHANNELS 3 Zrotation Yrotation Xrotation
                          JOINT RightHandPinkyEnd
                          {
                            OFFSET -1.945119 -0.157718 0.057211
                            CHANNELS 3 Zrotation Yrotation Xrotation
                          }
                        }
                      }
                    }
                  }
                }
              }
            }
          }
        }
      }
    }
    JOINT LeftLeg
    {
      OFFSET 10.043214 -8.434526 2.595655
      CHANNELS 3 Zrotation Yrotation Xrotation
      JOINT LeftShin
      {
        OFFSET -1e-06 -43.221752 -0.802913
        CHANNELS 3 Zrotation Yrotation Xrotation
        JOINT LeftFoot
        {
          OFFSET 1e-06 -42.155094 -3.481523
          CHANNELS 3 Zrotation Yrotation Xrotation
          JOINT LeftToeBase
          {
            OFFSET 0.0 -5.059472 13.231529
            CHANNELS 3 Zrotation Yrotation Xrotation
            JOINT LeftToeEnd
            {
              OFFSET -0.009607 -1.647619 6.513017
              CHANNELS 3 Zrotation Yrotation Xrotation
            }
          }
        }
      }
    }
    JOINT RightLeg
    {
      OFFSET -10.047278 -8.29526 2.620317
      CHANNELS 3 Zrotation Yrotation Xrotation
      JOINT RightShin
      {
        OFFSET 1e-06 -43.362206 -0.805556
        CHANNELS 3 Zrotation Yrotation Xrotation
        JOINT RightFoot
        {
          OFFSET 2e-06 -42.117393 -3.478398
          CHANNELS 3 Zrotation Yrotation Xrotation
          JOINT RightToeBase
          {
            OFFSET -0.0 -5.079609 13.284196
            CHANNELS 3 Zrotation Yrotation Xrotation
            JOINT RightToeEnd
            {
              OFFSET 0.009532 -1.634378 6.460591
              CHANNELS 3 Zrotation Yrotation Xrotation
            }
          }
        }
      }
    }
  }
}
MOTION
Frames: 5
Frame Time: 0.03333333333333333
0.0 0.0 0.0 0.0 -0.0 0.0 -0.860758 99.936104 -0.439068 0.144991 0.087208 -0.133754 0.476067 -0.236805 -3.702973 -0.780473 -0.356459 -6.061629 -1.978374 -1.993486 16.266657 1.375996 2.204951 -4.679221 -0.088187 2.860787 -3.590699 -1.767812 3.1584 -4.979848 7.7e-05 -2.2e-05 6e-06 0.023458 -0.081418 0.007698 0.756618 -3.804813 -10.560773 -0.712589 3.651521 -10.565244 -16.867306 -4.470508 14.006113 -46.990013 -4.381795 34.783413 0.148281 -46.345516 -0.088024 5.713286 2.058583 -19.15616 -5.882112 9.861295 0.702592 -10.936881 -0.360575 7.156211 1e-06 8.774835 -2e-06 -16.131916 18.321398 6.405939 -1.844035 2.498507 -2.507281 -10.163609 4.678948 4.621109 -20.976046 -6e-06 -1e-06 -21.226309 2.451695 -3.594005 1e-06 -6e-06 1e-06 -1.362683 2.240802 -0.746325 -21.334938 0.584908 3.008321 -13.82123 -5e-06 -2e-06 -23.887201 -0.249083 -0.839486 -61.085045 2.822233 -0.82484 -0.294025 1.679689 0.833255 -14.218223 0.093213 1.30058 -34.212078 -0.28757 0.967168 -20.033236 0.964533 1.212844 -1e-06 2e-06 -0.0 -3.440391 0.788233 0.501655 -15.928203 -3.167314 2.999709 -6.338833 -1e-06 -0.0 -18.123466 3.648183 -4.905676 -4e-06 0.0 -2e-06 35.337719 5.055598 17.704273 35.529167 4.427483 27.012583 0.600767 44.80394 0.557517 -3.556841 -24.025497 -18.771345 2.243543 -5.255039 -3.18016 14.282903 -0.826597 6.952508 -2e-06 -12.690612 2e-06 16.110857 -17.156197 2.611366 1.665667 -1.955922 -2.8783 4.727803 -4.17059 4.993927 11.020535 2e-06 -1e-06 12.109059 -3.735717 -2.866784 -0.0 0.0 0.0 1.291986 -1.92855 -1.49809 14.800139 0.567467 3.865611 14.242583 -1.341737 -6.660661 19.631979 0.143925 -0.648245 49.452084 -0.245081 -6.143629 0.353029 -1.511152 -0.031939 20.222805 3.68431 2.316632 18.787289 4e-06 -1e-06 10.751637 -0.47987 1.397907 -1e-06 -0.0 0.0 3.273809 0.305947 -0.58011 21.486828 11.830379 2.266133 8.162933 1e-06 -0.0 18.399096 -3.798989 -4.940578 2e-06 -0.0 -1e-06 6.130495 19.386971 -2.527038 -0.001517 -0.175484 8.748161 -7.096391 -1.532855 -4.15517 1.662487 -1.956722 0.147882 0.0 0.0 2e-06 -6.62343 -12.410505 -2.959629 -0.027422 -0.06871 8.386767 8.323566 -0.463155 -4.026407 -1.41379 0.899592 -0.014926 0.0 -0.0 -1e-06 
0.0 0.0 0.0 0.0 -0.0 0.0 -0.886944 99.958549 -0.421248 0.131425 0.130475 -0.090898 0.466692 -0.232766 -3.728072 -0.769806 -0.298733 -6.049011 -1.970891 -2.068494 16.240004 1.369502 2.19114 -4.688328 -0.07889 2.866886 -3.580911 -1.833603 3.168586 -4.971762 7.7e-05 -2.3e-05 6e-06 0.023138 -0.063124 0.007623 0.753368 -3.785811 -10.548749 -0.710008 3.669454 -10.555484 -16.897039 -4.458441 14.074037 -47.00293 -4.461563 34.653435 0.072315 -46.29163 -0.118518 5.635 2.006576 -18.963062 -5.882113 9.861295 0.70259 -10.93688 -0.360574 7.156209 -0.0 8.774833 -2e-06 -16.109106 18.277559 6.408534 -1.844035 2.498506 -2.50728 -10.163607 4.678948 4.621112 -20.97604 -3e-06 -2e-06 -21.226303 2.4517 -3.594007 1e-06 -6e-06 1e-06 -1.362682 2.2408 -0.746325 -21.33493 0.584911 3.008324 -13.821223 -2e-06 -0.0 -23.887192 -0.249078 -0.839486 -61.019592 2.804462 -0.74355 -0.294025 1.679688 0.833256 -14.218221 0.093216 1.30058 -34.212074 -0.287561 0.967166 -20.03323 0.964537 1.212841 0.0 1e-06 -0.0 -3.440392 0.788234 0.501656 -15.928201 -3.167311 2.999707 -6.338831 0.0 0.0 -18.123465 3.648185 -4.905676 -4e-06 0.0 -2e-06 35.311512 5.027868 17.73867 35.602478 4.454174 26.837337 0.58506 44.628788 0.514143 -3.551346 -23.778103 -18.556755 2.243541 -5.255038 -3.180159 14.282894 -0.826594 6.952507 -3e-06 -12.690609 -1e-06 16.102388 -17.167559 2.616121 1.665667 -1.955922 -2.878299 4.727799 -4.170588 4.993926 11.020529 4e-06 -1e-06 12.109053 -3.735715 -2.866785 -0.0 0.0 1e-06 1.291986 -1.92855 -1.49809 14.800134 0.567469 3.86561 14.242576 -1.341735 -6.66066 19.631969 0.143928 -0.648244 49.5779 -0.248914 -6.121759 0.35303 -1.511151 -0.031941 20.222799 3.684312 2.316633 18.787279 5e-06 1e-06 10.751633 -0.479868 1.397907 -1e-06 -0.0 1e-06 3.273808 0.305947 -0.580112 21.48682 11.830379 2.266135 8.16293 2e-06 -0.0 18.399088 -3.798984 -4.940574 2e-06 -0.0 -1e-06 6.139973 19.327492 -2.415233 -0.013013 -0.218484 8.426911 -7.199115 -1.554831 -4.004525 1.662905 -1.975723 0.131118 0.0 0.0 2e-06 -6.56606 -12.301168 -2.823452 -0.030445 -0.059289 8.03677 8.248401 -0.622609 -3.912998 -1.419315 0.890182 0.015923 0.0 -0.0 -1e-06 
0.0 0.0 0.0 0.0 -0.0 0.0 -0.910809 99.965775 -0.412583 0.130532 0.164217 -0.059159 0.456057 -0.228694 -3.752069 -0.76653 -0.268616 -6.056264 -1.965902 -2.101565 16.270615 1.357023 2.218969 -4.693995 -0.070652 2.851739 -3.611035 -1.876646 3.165175 -4.904691 7.7e-05 -2.2e-05 6e-06 0.023915 -0.058979 0.006013 0.749995 -3.780729 -10.553591 -0.705082 3.672379 -10.55745 -16.882746 -4.462362 14.082903 -47.025711 -4.454619 34.552994 0.033056 -46.327362 -0.152489 5.56707 2.026174 -18.902523 -5.882107 9.861288 0.70259 -10.936873 -0.360576 7.156206 2e-06 8.774829 -1e-06 -16.11149 18.275963 6.406411 -1.844033 2.498506 -2.507279 -10.163601 4.678945 4.621109 -20.976027 -5e-06 1e-06 -21.22629 2.451696 -3.594 2e-06 -6e-06 1e-06 -1.362682 2.240798 -0.746323 -21.334921 0.584908 3.008324 -13.821217 -4e-06 1e-06 -23.887175 -0.24908 -0.839482 -60.977859 2.818343 -0.751294 -0.294025 1.679688 0.833257 -14.218212 0.093213 1.300581 -34.212059 -0.287568 0.96717 -20.033216 0.964535 1.212845 -0.0 1e-06 1e-06 -3.440388 0.788234 0.501655 -15.928189 -3.167313 2.999706 -6.338826 -1e-06 1e-06 -18.123447 3.648181 -4.905674 -4e-06 1e-06 -2e-06 35.290604 5.028756 17.772259 35.626137 4.445399 26.686682 0.594866 44.599285 0.487558 -3.637424 -23.653765 -18.459272 2.243542 -5.255039 -3.180158 14.2829 -0.826595 6.952507 -3e-06 -12.69061 1e-06 16.084139 -17.144814 2.624408 1.665667 -1.955922 -2.878301 4.727801 -4.170589 4.993925 11.020534 3e-06 -2e-06 12.109059 -3.735717 -2.866785 -0.0 0.0 1e-06 1.291986 -1.92855 -1.49809 14.800138 0.567468 3.86561 14.24258 -1.341737 -6.660659 19.631975 0.143925 -0.648244 49.595242 -0.256007 -6.124297 0.353029 -1.511151 -0.03194 20.222803 3.68431 2.316632 18.787287 5e-06 -0.0 10.751635 -0.479869 1.397906 -1e-06 -0.0 0.0 3.273809 0.305947 -0.580112 21.486828 11.83038 2.266135 8.16293 0.0 -0.0 18.399096 -3.798986 -4.940578 2e-06 -0.0 -2e-06 6.137747 19.280785 -2.396342 -0.014314 -0.242681 8.309456 -7.239444 -1.592833 -3.939561 1.664368 -1.983638 0.172088 0.0 -1e-06 2e-06 -6.538491 -12.2208 -2.812012 -0.02703 -0.059329 7.963464 8.215661 -0.746983 -3.906827 -1.421807 0.894596 0.085708 0.0 -0.0 -1e-06 
0.0 0.0 0.0 0.0 -0.0 0.0 -0.929372 99.964691 -0.411325 0.138588 0.202089 -0.045199 0.437482 -0.22948 -3.759814 -0.761154 -0.261459 -6.066275 -1.957453 -2.08251 16.308556 1.32556 2.243211 -4.667156 -0.060116 2.833064 -3.654663 -1.892324 3.145156 -4.853142 7.7e-05 -2.3e-05 6e-06 0.024316 -0.058445 0.001857 0.747111 -3.779319 -10.568539 -0.701354 3.67154 -10.570608 -16.866957 -4.468874 14.077144 -47.04752 -4.459237 34.526844 0.024829 -46.340694 -0.168444 5.583645 2.059567 -18.819527 -5.882113 9.861297 0.702591 -10.936883 -0.360575 7.156212 2e-06 8.774836 -1e-06 -16.103737 18.267702 6.407529 -1.844035 2.498507 -2.50728 -10.163612 4.678949 4.621113 -20.976053 -6e-06 -1e-06 -21.226318 2.451698 -3.594006 1e-06 -5e-06 1e-06 -1.362683 2.2408 -0.746324 -21.33494 0.584908 3.008323 -13.82123 -4e-06 0.0 -23.887201 -0.249083 -0.839484 -60.95155 2.829071 -0.787178 -0.294025 1.679689 0.833256 -14.218228 0.093214 1.300579 -34.212105 -0.28757 0.967169 -20.033243 0.964534 1.212844 -0.0 1e-06 -0.0 -3.440392 0.788233 0.501654 -15.928206 -3.167316 2.999707 -6.338834 -2e-06 1e-06 -18.12347 3.648184 -4.905676 -4e-06 0.0 -2e-06 35.269718 5.024451 17.791761 35.627838 4.420361 26.63365 0.547557 44.632576 0.4483 -3.690994 -23.602844 -18.494568 2.243544 -5.255043 -3.180159 14.282907 -0.826595 6.952508 -3e-06 -12.690619 0.0 16.055904 -17.116261 2.640106 1.665668 -1.955924 -2.878302 4.727804 -4.170592 4.993927 11.02054 3e-06 -2e-06 12.109066 -3.735719 -2.866788 0.0 0.0 0.0 1.291987 -1.928551 -1.49809 14.800146 0.567469 3.865609 14.242589 -1.341737 -6.660664 19.631992 0.143927 -0.648245 49.541367 -0.270786 -6.128433 0.353029 -1.511152 -0.031939 20.222818 3.684315 2.31663 18.787296 6e-06 -3e-06 10.751641 -0.479867 1.397906 -2e-06 -0.0 1e-06 3.273811 0.305947 -0.580111 21.486837 11.83039 2.266132 8.162937 2e-06 -1e-06 18.399107 -3.798988 -4.940583 2e-06 -1e-06 -1e-06 6.128993 19.243587 -2.418126 -0.010569 -0.252977 8.303194 -7.243792 -1.617296 -3.941447 1.664781 -1.981113 0.207358 0.0 -0.0 2e-06 -6.531374 -12.140351 -2.85219 -0.025567 -0.072039 8.034612 8.207842 -0.848171 -3.958173 -1.42244 0.893317 0.137064 0.0 -1e-06 -1e-06 
0.0 0.0 0.0 0.0 -0.0 0.0 -0.939405 99.955833 -0.405822 0.15281 0.253777 -0.031649 0.4195 -0.225226 -3.765596 -0.755956 -0.269441 -6.072944 -1.958952 -2.049953 16.3389 1.302695 2.257674 -4.631462 -0.044907 2.807471 -3.682004 -1.885579 3.12277 -4.856899 7.7e-05 -2.3e-05 6e-06 0.024881 -0.054044 0.00211 0.746251 -3.773922 -10.574639 -0.699304 3.674366 -10.576687 -16.852209 -4.461967 14.097289 -47.075287 -4.516816 34.550426 0.044089 -46.331005 -0.174367 5.677411 2.081282 -18.776854 -5.882107 9.861284 0.702589 -10.93687 -0.360573 7.156203 -1e-06 8.774822 -2e-06 -16.066992 18.236275 6.418826 -1.844033 2.498503 -2.507278 -10.163601 4.678946 4.621109 -20.976023 -0.0 -1e-06 -21.226286 2.451698 -3.594002 2e-06 -5e-06 1e-06 -1.362682 2.240798 -0.746324 -21.334913 0.584913 3.008321 -13.821213 -1e-06 -0.0 -23.887167 -0.249077 -0.839487 -60.907406 2.830774 -0.797716 -0.294025 1.679688 0.833256 -14.218208 0.093216 1.300577 -34.212048 -0.28756 0.967166 -20.033213 0.964536 1.212838 0.0 -0.0 1e-06 -3.44039 0.788234 0.501656 -15.928187 -3.167308 2.999705 -6.338827 -1e-06 1e-06 -18.123444 3.648185 -4.905672 -4e-06 1e-06 -2e-06 35.239132 5.013171 17.799799 35.642506 4.415534 26.649549 0.482626 44.63171 0.413324 -3.717512 -23.536631 -18.511023 2.243541 -5.255037 -3.180158 14.282892 -0.826596 6.952503 -2e-06 -12.690605 1e-06 16.025827 -17.098492 2.656292 1.665666 -1.955922 -2.878299 4.727799 -4.170588 4.993925 11.020526 2e-06 -2e-06 12.109052 -3.735717 -2.866784 0.0 0.0 0.0 1.291985 -1.928549 -1.498089 14.800129 0.567467 3.86561 14.24257 -1.341737 -6.660659 19.631969 0.143925 -0.648244 49.483097 -0.287044 -6.13339 0.353029 -1.511151 -0.031939 20.222794 3.684309 2.316631 18.787271 2e-06 -1e-06 10.751629 -0.479869 1.397907 -1e-06 1e-06 1e-06 3.273807 0.305947 -0.580109 21.486813 11.830373 2.266134 8.162928 0.0 -0.0 18.399082 -3.798988 -4.940576 2e-06 -0.0 -1e-06 6.109921 19.196667 -2.497819 -0.005119 -0.252962 8.413965 -7.231636 -1.649995 -4.001947 1.66413 -1.979741 0.231209 0.0 -0.0 2e-06 -6.542498 -12.104684 -2.94136 -0.023976 -0.083473 8.224827 8.237128 -0.90572 -4.060786 -1.422373 0.891767 0.172966 -0.0 -0.0 -1e-06 
